<svg width="20px" height="30px" viewBox="0 0 10 15" version="1.1" 
  xmlns="http://www.w3.org/2000/svg" 
  xmlns:xlink="http://www.w3.org/1999/xlink">
  <title>Одноклассники</title>
  <g id="@Symbols" stroke="none" stroke-width="1" fill="none" fill-rule="evenodd">
    <g id="Component-/-Sharing-/-Desktop-/-Expanded" transform="translate(-164.000000, -14.000000)" fill="currentColor">
      <g id="Button" transform="translate(147.000000, 0.000000)">
        <path d="M23.6224764,24.9001887 L25.8641436,27.0642739 C26.3233698,27.506633 26.3233698,28.2250611 25.8641436,28.6678833 C25.4053972,29.1107056 24.6618537,29.1107056 24.2035872,28.6678833 L21.9995891,26.5413175 L19.7975104,28.6678833 C19.5678972,28.8890628 19.2670249,28.9997684 18.9661525,28.9997684 C18.66576,28.9997684 18.3653675,28.8890628 18.1357543,28.6678833 C17.6770079,28.2250611 17.6770079,27.5070962 18.1352745,27.0642739 L20.3771816,24.9001887 C19.5609393,24.7206974 18.7737285,24.4084985 18.0486597,23.9693819 C17.4999395,23.6354124 17.3351075,22.935744 17.6808468,22.405608 C18.0256264,21.8747771 18.7506952,21.714972 19.3003752,22.0489415 C20.9419771,23.0457548 23.0567212,23.0459864 24.6992828,22.0489415 C25.2489627,21.714972 25.9737917,21.8747771 26.319291,22.405608 C26.6650303,22.9352808 26.4997185,23.6354124 25.9509983,23.9693819 C25.2259295,24.4089617 24.4387187,24.7206974 23.6224764,24.9001887 Z M21.9898124,21.7408199 C19.7783765,21.7408199 17.9798602,20.004966 17.9798602,17.870989 C17.9798602,15.7363171 19.7783765,14 21.9898124,14 C24.2017282,14 25.9997646,15.7363171 25.9997646,17.870989 C25.9997646,20.004966 24.2017282,21.7408199 21.9898124,21.7408199 Z M21.9898124,16.2685376 C21.0749589,16.2685376 20.329496,16.9871973 20.329496,17.870989 C20.329496,18.7540858 21.0749589,19.4732087 21.9898124,19.4732087 C22.9053858,19.4732087 23.6501289,18.7540858 23.6501289,17.870989 C23.6501289,16.9871973 22.9053858,16.2685376 21.9898124,16.2685376 Z" id="Combined-Shape"></path>
      </g>
    </g>
  </g>
</svg>