<svg width="32px" height="18px" viewBox="0 0 16 9" version="1.1" 
  xmlns="http://www.w3.org/2000/svg" 
  xmlns:xlink="http://www.w3.org/1999/xlink">
  <title>ВКонтакте</title>
  <defs></defs>
  <g id="@Symbols" stroke="none" stroke-width="1" fill="none" fill-rule="evenodd">
    <g id="Component-/-Sharing-/-Desktop-/-Expanded" transform="translate(-63.000000, -18.000000)" fill="currentColor">
      <g id="Button" transform="translate(49.000000, 0.000000)">
        <path d="M22.784664,26.9225501 C22.784664,26.9225501 23.0734289,26.8910556 23.2213328,26.7351193 C23.3567158,26.5922418 23.3520204,26.322618 23.3520204,26.322618 C23.3520204,26.322618 23.3340216,25.0636058 23.9295502,24.8777113 C24.5164706,24.6948896 25.2700765,26.095243 26.0698534,26.6337224 C26.6739902,27.0408465 27.1325707,26.9517401 27.1325707,26.9517401 L29.2697437,26.9225501 C29.2697437,26.9225501 30.3872402,26.8549521 29.8574467,25.9923098 C29.8136233,25.9216391 29.5483353,25.3539698 28.2688487,24.1879047 C26.9283224,22.9673004 27.1083113,23.1647172 28.7219513,21.0530487 C29.7048474,19.7671509 30.0976928,18.9820926 29.9748308,18.6464072 C29.8582293,18.3253168 29.1351433,18.4105824 29.1351433,18.4105824 L26.729552,18.4251775 C26.729552,18.4251775 26.5511282,18.4013645 26.4188754,18.4789486 C26.2897529,18.5549963 26.2060189,18.732441 26.2060189,18.732441 C26.2060189,18.732441 25.8256945,19.7272066 25.3178127,20.5737176 C24.2464872,22.3589187 23.8184266,22.4534022 23.643133,22.3427873 C23.2354189,22.0839178 23.3371518,21.3042366 23.3371518,20.7503941 C23.3371518,19.0197324 23.6047875,18.2984313 22.816749,18.1117687 C22.5553738,18.0495478 22.3628638,18.0088354 21.6937745,18.001922 C20.8353056,17.9934722 20.1090893,18.0049946 19.6974624,18.2024114 C19.4235662,18.3337666 19.2122749,18.6272032 19.3413974,18.6441027 C19.5002572,18.664843 19.8602351,18.7393544 20.0511798,18.9943831 C20.2976864,19.3239232 20.2890783,20.062892 20.2890783,20.062892 C20.2890783,20.062892 20.4307217,22.1000491 19.9580551,22.3527734 C19.634075,22.5263773 19.1895806,22.1722561 18.2340741,20.5522092 C17.7449738,19.7225977 17.3756052,18.8054161 17.3756052,18.8054161 C17.3756052,18.8054161 17.3043921,18.6341166 17.1768348,18.5419376 C17.0226703,18.4305546 16.8074662,18.3959874 16.8074662,18.3959874 L14.5216066,18.4105824 C14.5216066,18.4105824 14.1780625,18.4198003 14.0520703,18.5665187 C13.9401641,18.6963375 14.0434621,18.9659612 14.0434621,18.9659612 C14.0434621,18.9659612 15.8331782,23.076379 17.8600102,25.1481032 C19.7185916,27.0469918 21.828375,26.9225501 21.828375,26.9225501 L22.784664,26.9225501 Z" id="Shape"></path>
      </g>
    </g>
  </g>
</svg>