<svg xmlns="http://www.w3.org/2000/svg" xmlns:xlink="http://www.w3.org/1999/xlink"><symbol id="icon-svg-check-ok" viewBox="0 0 66 66"><circle fill="#63A63E" cx="33" cy="33" r="33"/><path fill="#FFF" d="M49.641 21.066a1.003 1.003 0 0 0-1.414 0L29.788 39.504a1.003 1.003 0 0 1-1.414 0l-8.14-8.139a1.003 1.003 0 0 0-1.414 0L15.285 34.9a1.003 1.003 0 0 0 0 1.414l13.089 13.09a1.003 1.003 0 0 0 1.414 0l3.536-3.536 1.414-1.414 18.438-18.438a1.003 1.003 0 0 0 0-1.414l-3.535-3.536z"/></symbol><symbol id="icon-svg-ok" viewBox="0 0 10 15">
  <title>&#x41E;&#x434;&#x43D;&#x43E;&#x43A;&#x43B;&#x430;&#x441;&#x441;&#x43D;&#x438;&#x43A;&#x438;</title>
  <g id="@Symbols" stroke="none" stroke-width="1" fill="none" fill-rule="evenodd">
    <g id="Component-/-Sharing-/-Desktop-/-Expanded" transform="translate(-164.000000, -14.000000)" fill="currentColor">
      <g id="Button" transform="translate(147.000000, 0.000000)">
        <path d="M23.6224764,24.9001887 L25.8641436,27.0642739 C26.3233698,27.506633 26.3233698,28.2250611 25.8641436,28.6678833 C25.4053972,29.1107056 24.6618537,29.1107056 24.2035872,28.6678833 L21.9995891,26.5413175 L19.7975104,28.6678833 C19.5678972,28.8890628 19.2670249,28.9997684 18.9661525,28.9997684 C18.66576,28.9997684 18.3653675,28.8890628 18.1357543,28.6678833 C17.6770079,28.2250611 17.6770079,27.5070962 18.1352745,27.0642739 L20.3771816,24.9001887 C19.5609393,24.7206974 18.7737285,24.4084985 18.0486597,23.9693819 C17.4999395,23.6354124 17.3351075,22.935744 17.6808468,22.405608 C18.0256264,21.8747771 18.7506952,21.714972 19.3003752,22.0489415 C20.9419771,23.0457548 23.0567212,23.0459864 24.6992828,22.0489415 C25.2489627,21.714972 25.9737917,21.8747771 26.319291,22.405608 C26.6650303,22.9352808 26.4997185,23.6354124 25.9509983,23.9693819 C25.2259295,24.4089617 24.4387187,24.7206974 23.6224764,24.9001887 Z M21.9898124,21.7408199 C19.7783765,21.7408199 17.9798602,20.004966 17.9798602,17.870989 C17.9798602,15.7363171 19.7783765,14 21.9898124,14 C24.2017282,14 25.9997646,15.7363171 25.9997646,17.870989 C25.9997646,20.004966 24.2017282,21.7408199 21.9898124,21.7408199 Z M21.9898124,16.2685376 C21.0749589,16.2685376 20.329496,16.9871973 20.329496,17.870989 C20.329496,18.7540858 21.0749589,19.4732087 21.9898124,19.4732087 C22.9053858,19.4732087 23.6501289,18.7540858 23.6501289,17.870989 C23.6501289,16.9871973 22.9053858,16.2685376 21.9898124,16.2685376 Z" id="Combined-Shape"/>
      </g>
    </g>
  </g>
</symbol><symbol id="icon-svg-vk" viewBox="0 0 16 9">
  <title>&#x412;&#x41A;&#x43E;&#x43D;&#x442;&#x430;&#x43A;&#x442;&#x435;</title>
  
  <g id="@Symbols" stroke="none" stroke-width="1" fill="none" fill-rule="evenodd">
    <g id="Component-/-Sharing-/-Desktop-/-Expanded" transform="translate(-63.000000, -18.000000)" fill="currentColor">
      <g id="Button" transform="translate(49.000000, 0.000000)">
        <path d="M22.784664,26.9225501 C22.784664,26.9225501 23.0734289,26.8910556 23.2213328,26.7351193 C23.3567158,26.5922418 23.3520204,26.322618 23.3520204,26.322618 C23.3520204,26.322618 23.3340216,25.0636058 23.9295502,24.8777113 C24.5164706,24.6948896 25.2700765,26.095243 26.0698534,26.6337224 C26.6739902,27.0408465 27.1325707,26.9517401 27.1325707,26.9517401 L29.2697437,26.9225501 C29.2697437,26.9225501 30.3872402,26.8549521 29.8574467,25.9923098 C29.8136233,25.9216391 29.5483353,25.3539698 28.2688487,24.1879047 C26.9283224,22.9673004 27.1083113,23.1647172 28.7219513,21.0530487 C29.7048474,19.7671509 30.0976928,18.9820926 29.9748308,18.6464072 C29.8582293,18.3253168 29.1351433,18.4105824 29.1351433,18.4105824 L26.729552,18.4251775 C26.729552,18.4251775 26.5511282,18.4013645 26.4188754,18.4789486 C26.2897529,18.5549963 26.2060189,18.732441 26.2060189,18.732441 C26.2060189,18.732441 25.8256945,19.7272066 25.3178127,20.5737176 C24.2464872,22.3589187 23.8184266,22.4534022 23.643133,22.3427873 C23.2354189,22.0839178 23.3371518,21.3042366 23.3371518,20.7503941 C23.3371518,19.0197324 23.6047875,18.2984313 22.816749,18.1117687 C22.5553738,18.0495478 22.3628638,18.0088354 21.6937745,18.001922 C20.8353056,17.9934722 20.1090893,18.0049946 19.6974624,18.2024114 C19.4235662,18.3337666 19.2122749,18.6272032 19.3413974,18.6441027 C19.5002572,18.664843 19.8602351,18.7393544 20.0511798,18.9943831 C20.2976864,19.3239232 20.2890783,20.062892 20.2890783,20.062892 C20.2890783,20.062892 20.4307217,22.1000491 19.9580551,22.3527734 C19.634075,22.5263773 19.1895806,22.1722561 18.2340741,20.5522092 C17.7449738,19.7225977 17.3756052,18.8054161 17.3756052,18.8054161 C17.3756052,18.8054161 17.3043921,18.6341166 17.1768348,18.5419376 C17.0226703,18.4305546 16.8074662,18.3959874 16.8074662,18.3959874 L14.5216066,18.4105824 C14.5216066,18.4105824 14.1780625,18.4198003 14.0520703,18.5665187 C13.9401641,18.6963375 14.0434621,18.9659612 14.0434621,18.9659612 C14.0434621,18.9659612 15.8331782,23.076379 17.8600102,25.1481032 C19.7185916,27.0469918 21.828375,26.9225501 21.828375,26.9225501 L22.784664,26.9225501 Z" id="Shape"/>
      </g>
    </g>
  </g>
</symbol></svg>